<mxfile host="app.diagrams.net" modified="2024-04-25T21:07:10.008Z" agent="Mozilla/5.0 (Macintosh; Intel Mac OS X 10_15_7) AppleWebKit/537.36 (KHTML, like Gecko) Chrome/121.0.0.0 Safari/537.36" etag="cGHtUwM-2omZhFVPgmPZ" version="24.2.8" type="device">
  <diagram name="Page-1" id="9f46799a-70d6-7492-0946-bef42562c5a5">
    <mxGraphModel dx="3188" dy="1400" grid="1" gridSize="10" guides="1" tooltips="1" connect="1" arrows="1" fold="1" page="1" pageScale="1" pageWidth="1100" pageHeight="850" background="none" math="0" shadow="0">
      <root>
        <mxCell id="0" />
        <mxCell id="1" parent="0" />
        <mxCell id="78961159f06e98e8-17" value="Buyer" style="swimlane;html=1;fontStyle=1;align=center;verticalAlign=top;childLayout=stackLayout;horizontal=1;startSize=26;horizontalStack=0;resizeParent=1;resizeLast=0;collapsible=1;marginBottom=0;swimlaneFillColor=#ffffff;rounded=0;shadow=0;comic=0;labelBackgroundColor=none;strokeWidth=1;fillColor=none;fontFamily=Verdana;fontSize=12" parent="1" vertex="1">
          <mxGeometry x="-1850" y="-360" width="190" height="120" as="geometry" />
        </mxCell>
        <mxCell id="78961159f06e98e8-21" value="- user_id: int" style="text;html=1;strokeColor=none;fillColor=none;align=left;verticalAlign=top;spacingLeft=4;spacingRight=4;whiteSpace=wrap;overflow=hidden;rotatable=0;points=[[0,0.5],[1,0.5]];portConstraint=eastwest;" parent="78961159f06e98e8-17" vertex="1">
          <mxGeometry y="26" width="190" height="26" as="geometry" />
        </mxCell>
        <mxCell id="78961159f06e98e8-23" value="- user_name: String" style="text;html=1;strokeColor=none;fillColor=none;align=left;verticalAlign=top;spacingLeft=4;spacingRight=4;whiteSpace=wrap;overflow=hidden;rotatable=0;points=[[0,0.5],[1,0.5]];portConstraint=eastwest;" parent="78961159f06e98e8-17" vertex="1">
          <mxGeometry y="52" width="190" height="26" as="geometry" />
        </mxCell>
        <mxCell id="CGtpagoQlfGa9cjguJkH-2" value="- followed: List&amp;lt;Seller&amp;gt;" style="text;html=1;strokeColor=none;fillColor=none;align=left;verticalAlign=top;spacingLeft=4;spacingRight=4;whiteSpace=wrap;overflow=hidden;rotatable=0;points=[[0,0.5],[1,0.5]];portConstraint=eastwest;" parent="78961159f06e98e8-17" vertex="1">
          <mxGeometry y="78" width="190" height="26" as="geometry" />
        </mxCell>
        <mxCell id="78961159f06e98e8-19" value="" style="line;html=1;strokeWidth=1;fillColor=none;align=left;verticalAlign=middle;spacingTop=-1;spacingLeft=3;spacingRight=3;rotatable=0;labelPosition=right;points=[];portConstraint=eastwest;" parent="78961159f06e98e8-17" vertex="1">
          <mxGeometry y="104" width="190" height="8" as="geometry" />
        </mxCell>
        <mxCell id="CGtpagoQlfGa9cjguJkH-13" value="Post" style="swimlane;html=1;fontStyle=1;align=center;verticalAlign=top;childLayout=stackLayout;horizontal=1;startSize=26;horizontalStack=0;resizeParent=1;resizeLast=0;collapsible=1;marginBottom=0;swimlaneFillColor=#ffffff;rounded=0;shadow=0;comic=0;labelBackgroundColor=none;strokeWidth=1;fillColor=none;fontFamily=Verdana;fontSize=12" parent="1" vertex="1">
          <mxGeometry x="-1340" y="-460" width="160" height="242" as="geometry" />
        </mxCell>
        <mxCell id="CGtpagoQlfGa9cjguJkH-14" value="- post_id: int" style="text;html=1;strokeColor=none;fillColor=none;align=left;verticalAlign=top;spacingLeft=4;spacingRight=4;whiteSpace=wrap;overflow=hidden;rotatable=0;points=[[0,0.5],[1,0.5]];portConstraint=eastwest;" parent="CGtpagoQlfGa9cjguJkH-13" vertex="1">
          <mxGeometry y="26" width="160" height="26" as="geometry" />
        </mxCell>
        <mxCell id="CGtpagoQlfGa9cjguJkH-16" value="- date: LocalDate" style="text;html=1;strokeColor=none;fillColor=none;align=left;verticalAlign=top;spacingLeft=4;spacingRight=4;whiteSpace=wrap;overflow=hidden;rotatable=0;points=[[0,0.5],[1,0.5]];portConstraint=eastwest;" parent="CGtpagoQlfGa9cjguJkH-13" vertex="1">
          <mxGeometry y="52" width="160" height="26" as="geometry" />
        </mxCell>
        <mxCell id="CGtpagoQlfGa9cjguJkH-22" value="- category: int" style="text;html=1;strokeColor=none;fillColor=none;align=left;verticalAlign=top;spacingLeft=4;spacingRight=4;whiteSpace=wrap;overflow=hidden;rotatable=0;points=[[0,0.5],[1,0.5]];portConstraint=eastwest;" parent="CGtpagoQlfGa9cjguJkH-13" vertex="1">
          <mxGeometry y="78" width="160" height="26" as="geometry" />
        </mxCell>
        <mxCell id="CGtpagoQlfGa9cjguJkH-21" value="- price: double" style="text;html=1;strokeColor=none;fillColor=none;align=left;verticalAlign=top;spacingLeft=4;spacingRight=4;whiteSpace=wrap;overflow=hidden;rotatable=0;points=[[0,0.5],[1,0.5]];portConstraint=eastwest;" parent="CGtpagoQlfGa9cjguJkH-13" vertex="1">
          <mxGeometry y="104" width="160" height="26" as="geometry" />
        </mxCell>
        <mxCell id="CGtpagoQlfGa9cjguJkH-23" value="- user_id: int" style="text;html=1;strokeColor=none;fillColor=none;align=left;verticalAlign=top;spacingLeft=4;spacingRight=4;whiteSpace=wrap;overflow=hidden;rotatable=0;points=[[0,0.5],[1,0.5]];portConstraint=eastwest;" parent="CGtpagoQlfGa9cjguJkH-13" vertex="1">
          <mxGeometry y="130" width="160" height="26" as="geometry" />
        </mxCell>
        <mxCell id="CGtpagoQlfGa9cjguJkH-20" value="- product: Product" style="text;html=1;strokeColor=none;fillColor=none;align=left;verticalAlign=top;spacingLeft=4;spacingRight=4;whiteSpace=wrap;overflow=hidden;rotatable=0;points=[[0,0.5],[1,0.5]];portConstraint=eastwest;" parent="CGtpagoQlfGa9cjguJkH-13" vertex="1">
          <mxGeometry y="156" width="160" height="26" as="geometry" />
        </mxCell>
        <mxCell id="CGtpagoQlfGa9cjguJkH-17" value="" style="line;html=1;strokeWidth=1;fillColor=none;align=left;verticalAlign=middle;spacingTop=-1;spacingLeft=3;spacingRight=3;rotatable=0;labelPosition=right;points=[];portConstraint=eastwest;" parent="CGtpagoQlfGa9cjguJkH-13" vertex="1">
          <mxGeometry y="182" width="160" height="8" as="geometry" />
        </mxCell>
        <mxCell id="CGtpagoQlfGa9cjguJkH-18" value="+ method(type): type" style="text;html=1;strokeColor=none;fillColor=none;align=left;verticalAlign=top;spacingLeft=4;spacingRight=4;whiteSpace=wrap;overflow=hidden;rotatable=0;points=[[0,0.5],[1,0.5]];portConstraint=eastwest;" parent="CGtpagoQlfGa9cjguJkH-13" vertex="1">
          <mxGeometry y="190" width="160" height="26" as="geometry" />
        </mxCell>
        <mxCell id="CGtpagoQlfGa9cjguJkH-19" value="+ method(type): type" style="text;html=1;strokeColor=none;fillColor=none;align=left;verticalAlign=top;spacingLeft=4;spacingRight=4;whiteSpace=wrap;overflow=hidden;rotatable=0;points=[[0,0.5],[1,0.5]];portConstraint=eastwest;" parent="CGtpagoQlfGa9cjguJkH-13" vertex="1">
          <mxGeometry y="216" width="160" height="26" as="geometry" />
        </mxCell>
        <mxCell id="CGtpagoQlfGa9cjguJkH-24" value="Product" style="swimlane;html=1;fontStyle=1;align=center;verticalAlign=top;childLayout=stackLayout;horizontal=1;startSize=26;horizontalStack=0;resizeParent=1;resizeLast=0;collapsible=1;marginBottom=0;swimlaneFillColor=#ffffff;rounded=0;shadow=0;comic=0;labelBackgroundColor=none;strokeWidth=1;fillColor=none;fontFamily=Verdana;fontSize=12" parent="1" vertex="1">
          <mxGeometry x="-1120" y="-310" width="160" height="242" as="geometry" />
        </mxCell>
        <mxCell id="CGtpagoQlfGa9cjguJkH-25" value="- product_id: int" style="text;html=1;strokeColor=none;fillColor=none;align=left;verticalAlign=top;spacingLeft=4;spacingRight=4;whiteSpace=wrap;overflow=hidden;rotatable=0;points=[[0,0.5],[1,0.5]];portConstraint=eastwest;" parent="CGtpagoQlfGa9cjguJkH-24" vertex="1">
          <mxGeometry y="26" width="160" height="26" as="geometry" />
        </mxCell>
        <mxCell id="CGtpagoQlfGa9cjguJkH-26" value="- product_name: String" style="text;html=1;strokeColor=none;fillColor=none;align=left;verticalAlign=top;spacingLeft=4;spacingRight=4;whiteSpace=wrap;overflow=hidden;rotatable=0;points=[[0,0.5],[1,0.5]];portConstraint=eastwest;" parent="CGtpagoQlfGa9cjguJkH-24" vertex="1">
          <mxGeometry y="52" width="160" height="26" as="geometry" />
        </mxCell>
        <mxCell id="CGtpagoQlfGa9cjguJkH-31" value="- brand: String" style="text;html=1;strokeColor=none;fillColor=none;align=left;verticalAlign=top;spacingLeft=4;spacingRight=4;whiteSpace=wrap;overflow=hidden;rotatable=0;points=[[0,0.5],[1,0.5]];portConstraint=eastwest;" parent="CGtpagoQlfGa9cjguJkH-24" vertex="1">
          <mxGeometry y="78" width="160" height="26" as="geometry" />
        </mxCell>
        <mxCell id="CGtpagoQlfGa9cjguJkH-41" value="- type: String" style="text;html=1;strokeColor=none;fillColor=none;align=left;verticalAlign=top;spacingLeft=4;spacingRight=4;whiteSpace=wrap;overflow=hidden;rotatable=0;points=[[0,0.5],[1,0.5]];portConstraint=eastwest;" parent="CGtpagoQlfGa9cjguJkH-24" vertex="1">
          <mxGeometry y="104" width="160" height="26" as="geometry" />
        </mxCell>
        <mxCell id="CGtpagoQlfGa9cjguJkH-27" value="- color: String" style="text;html=1;strokeColor=none;fillColor=none;align=left;verticalAlign=top;spacingLeft=4;spacingRight=4;whiteSpace=wrap;overflow=hidden;rotatable=0;points=[[0,0.5],[1,0.5]];portConstraint=eastwest;" parent="CGtpagoQlfGa9cjguJkH-24" vertex="1">
          <mxGeometry y="130" width="160" height="26" as="geometry" />
        </mxCell>
        <mxCell id="CGtpagoQlfGa9cjguJkH-32" value="- notes: String" style="text;html=1;strokeColor=none;fillColor=none;align=left;verticalAlign=top;spacingLeft=4;spacingRight=4;whiteSpace=wrap;overflow=hidden;rotatable=0;points=[[0,0.5],[1,0.5]];portConstraint=eastwest;" parent="CGtpagoQlfGa9cjguJkH-24" vertex="1">
          <mxGeometry y="156" width="160" height="26" as="geometry" />
        </mxCell>
        <mxCell id="CGtpagoQlfGa9cjguJkH-99" value="- has_promo: boolean" style="text;html=1;strokeColor=none;fillColor=none;align=left;verticalAlign=top;spacingLeft=4;spacingRight=4;whiteSpace=wrap;overflow=hidden;rotatable=0;points=[[0,0.5],[1,0.5]];portConstraint=eastwest;" parent="CGtpagoQlfGa9cjguJkH-24" vertex="1">
          <mxGeometry y="182" width="160" height="26" as="geometry" />
        </mxCell>
        <mxCell id="CGtpagoQlfGa9cjguJkH-100" value="- discount: double" style="text;html=1;strokeColor=none;fillColor=none;align=left;verticalAlign=top;spacingLeft=4;spacingRight=4;whiteSpace=wrap;overflow=hidden;rotatable=0;points=[[0,0.5],[1,0.5]];portConstraint=eastwest;" parent="CGtpagoQlfGa9cjguJkH-24" vertex="1">
          <mxGeometry y="208" width="160" height="26" as="geometry" />
        </mxCell>
        <mxCell id="CGtpagoQlfGa9cjguJkH-28" value="" style="line;html=1;strokeWidth=1;fillColor=none;align=left;verticalAlign=middle;spacingTop=-1;spacingLeft=3;spacingRight=3;rotatable=0;labelPosition=right;points=[];portConstraint=eastwest;" parent="CGtpagoQlfGa9cjguJkH-24" vertex="1">
          <mxGeometry y="234" width="160" height="8" as="geometry" />
        </mxCell>
        <mxCell id="CGtpagoQlfGa9cjguJkH-42" value="&lt;p style=&quot;margin:0px;margin-top:4px;text-align:center;&quot;&gt;&lt;i&gt;&amp;lt;&amp;lt;Interface&amp;gt;&amp;gt;&lt;/i&gt;&lt;br&gt;&lt;b&gt;IBuyerRepository&lt;/b&gt;&lt;/p&gt;&lt;hr size=&quot;1&quot; style=&quot;border-style:solid;&quot;&gt;&lt;p style=&quot;margin:0px;margin-left:4px;&quot;&gt;+ save(Buyer buyer): Buyer&lt;br&gt;+ getById(Integer id): Buyer&lt;/p&gt;&lt;p style=&quot;margin:0px;margin-left:4px;&quot;&gt;+ getAll(): List&amp;lt;Buyer&amp;gt;&lt;/p&gt;&lt;p style=&quot;margin:0px;margin-left:4px;&quot;&gt;+ update(Buyer buyer): Buyer&lt;/p&gt;&lt;p style=&quot;margin:0px;margin-left:4px;&quot;&gt;+ followUser(Integer userId, Seller userFollowed): Buyer&lt;/p&gt;" style="verticalAlign=top;align=left;overflow=fill;html=1;whiteSpace=wrap;" parent="1" vertex="1">
          <mxGeometry x="650" y="120" width="330" height="120" as="geometry" />
        </mxCell>
        <mxCell id="CGtpagoQlfGa9cjguJkH-44" value="&lt;p style=&quot;margin:0px;margin-top:4px;text-align:center;&quot;&gt;&lt;i&gt;&amp;lt;&amp;lt;Interface&amp;gt;&amp;gt;&lt;/i&gt;&lt;br&gt;&lt;b&gt;IPostRepository&lt;/b&gt;&lt;/p&gt;&lt;hr size=&quot;1&quot; style=&quot;border-style:solid;&quot;&gt;&lt;p style=&quot;margin:0px;margin-left:4px;&quot;&gt;+ save(Post user): Post&lt;br&gt;+ getById(int id): Post&lt;/p&gt;&lt;p style=&quot;margin:0px;margin-left:4px;&quot;&gt;+ getAll(): List&amp;lt;Post&amp;gt;&lt;/p&gt;&lt;p style=&quot;margin:0px;margin-left:4px;&quot;&gt;+ update(Post post): Post&amp;nbsp;&lt;/p&gt;&lt;p style=&quot;margin:0px;margin-left:4px;&quot;&gt;+ delete(int id): void&lt;/p&gt;&lt;p style=&quot;margin:0px;margin-left:4px;&quot;&gt;+ searchPostId(): void&lt;/p&gt;&lt;p style=&quot;margin:0px;margin-left:4px;&quot;&gt;&lt;br&gt;&lt;/p&gt;" style="verticalAlign=top;align=left;overflow=fill;html=1;whiteSpace=wrap;" parent="1" vertex="1">
          <mxGeometry x="1850" y="120" width="220" height="140" as="geometry" />
        </mxCell>
        <mxCell id="CGtpagoQlfGa9cjguJkH-46" value="BuyerRepositoryImp" style="swimlane;html=1;fontStyle=1;align=center;verticalAlign=top;childLayout=stackLayout;horizontal=1;startSize=26;horizontalStack=0;resizeParent=1;resizeLast=0;collapsible=1;marginBottom=0;swimlaneFillColor=#ffffff;rounded=0;shadow=0;comic=0;labelBackgroundColor=none;strokeWidth=1;fillColor=none;fontFamily=Verdana;fontSize=12" parent="1" vertex="1">
          <mxGeometry x="1120" y="110" width="360" height="160" as="geometry" />
        </mxCell>
        <mxCell id="CGtpagoQlfGa9cjguJkH-47" value="- Buyer: List&amp;lt;Buyer&amp;gt;" style="text;html=1;strokeColor=none;fillColor=none;align=left;verticalAlign=top;spacingLeft=4;spacingRight=4;whiteSpace=wrap;overflow=hidden;rotatable=0;points=[[0,0.5],[1,0.5]];portConstraint=eastwest;" parent="CGtpagoQlfGa9cjguJkH-46" vertex="1">
          <mxGeometry y="26" width="360" height="26" as="geometry" />
        </mxCell>
        <mxCell id="CGtpagoQlfGa9cjguJkH-53" value="" style="line;html=1;strokeWidth=1;fillColor=none;align=left;verticalAlign=middle;spacingTop=-1;spacingLeft=3;spacingRight=3;rotatable=0;labelPosition=right;points=[];portConstraint=eastwest;" parent="CGtpagoQlfGa9cjguJkH-46" vertex="1">
          <mxGeometry y="52" width="360" height="8" as="geometry" />
        </mxCell>
        <mxCell id="CGtpagoQlfGa9cjguJkH-54" value="&lt;p style=&quot;margin: 0px 0px 0px 4px;&quot;&gt;+ save(Buyer buyer): Buyer&lt;br&gt;+ getById(Integer id): Buyer&lt;/p&gt;&lt;p style=&quot;margin: 0px 0px 0px 4px;&quot;&gt;+ getAll(): List&amp;lt;Buyer&amp;gt;&lt;/p&gt;&lt;p style=&quot;margin: 0px 0px 0px 4px;&quot;&gt;+ update(Buyer buyer): Buyer&lt;/p&gt;&lt;p style=&quot;margin: 0px 0px 0px 4px;&quot;&gt;+ followUser(Integer userId, Seller userFollowed): Buyer&lt;/p&gt;" style="text;html=1;strokeColor=none;fillColor=none;align=left;verticalAlign=top;spacingLeft=4;spacingRight=4;whiteSpace=wrap;overflow=hidden;rotatable=0;points=[[0,0.5],[1,0.5]];portConstraint=eastwest;" parent="CGtpagoQlfGa9cjguJkH-46" vertex="1">
          <mxGeometry y="60" width="360" height="100" as="geometry" />
        </mxCell>
        <mxCell id="CGtpagoQlfGa9cjguJkH-67" value="PostRepositoryImp" style="swimlane;html=1;fontStyle=1;align=center;verticalAlign=top;childLayout=stackLayout;horizontal=1;startSize=26;horizontalStack=0;resizeParent=1;resizeLast=0;collapsible=1;marginBottom=0;swimlaneFillColor=#ffffff;rounded=0;shadow=0;comic=0;labelBackgroundColor=none;strokeWidth=1;fillColor=none;fontFamily=Verdana;fontSize=12" parent="1" vertex="1">
          <mxGeometry x="2150" y="130" width="200" height="170" as="geometry" />
        </mxCell>
        <mxCell id="CGtpagoQlfGa9cjguJkH-69" value="" style="line;html=1;strokeWidth=1;fillColor=none;align=left;verticalAlign=middle;spacingTop=-1;spacingLeft=3;spacingRight=3;rotatable=0;labelPosition=right;points=[];portConstraint=eastwest;" parent="CGtpagoQlfGa9cjguJkH-67" vertex="1">
          <mxGeometry y="26" width="200" height="8" as="geometry" />
        </mxCell>
        <mxCell id="CGtpagoQlfGa9cjguJkH-68" value="- Posts: List&amp;lt;Post&amp;gt;" style="text;html=1;strokeColor=none;fillColor=none;align=left;verticalAlign=top;spacingLeft=4;spacingRight=4;whiteSpace=wrap;overflow=hidden;rotatable=0;points=[[0,0.5],[1,0.5]];portConstraint=eastwest;" parent="CGtpagoQlfGa9cjguJkH-67" vertex="1">
          <mxGeometry y="34" width="200" height="26" as="geometry" />
        </mxCell>
        <mxCell id="CGtpagoQlfGa9cjguJkH-72" value="&lt;p style=&quot;margin: 0px 0px 0px 4px;&quot;&gt;+ save(Post user): Post&lt;br&gt;+ getById(int id): Post&lt;/p&gt;&lt;p style=&quot;margin: 0px 0px 0px 4px;&quot;&gt;+ getAll(): List&amp;lt;Post&amp;gt;&lt;/p&gt;&lt;p style=&quot;margin: 0px 0px 0px 4px;&quot;&gt;+ update(Post post): Post&amp;nbsp;&lt;/p&gt;&lt;p style=&quot;margin: 0px 0px 0px 4px;&quot;&gt;+ delete(int id): void&lt;/p&gt;&lt;p style=&quot;margin: 0px 0px 0px 4px;&quot;&gt;+ searchPostId(): void&lt;/p&gt;" style="text;html=1;strokeColor=none;fillColor=none;align=left;verticalAlign=top;spacingLeft=4;spacingRight=4;whiteSpace=wrap;overflow=hidden;rotatable=0;points=[[0,0.5],[1,0.5]];portConstraint=eastwest;" parent="CGtpagoQlfGa9cjguJkH-67" vertex="1">
          <mxGeometry y="60" width="200" height="104" as="geometry" />
        </mxCell>
        <mxCell id="CGtpagoQlfGa9cjguJkH-80" value="Seller" style="swimlane;html=1;fontStyle=1;align=center;verticalAlign=top;childLayout=stackLayout;horizontal=1;startSize=26;horizontalStack=0;resizeParent=1;resizeLast=0;collapsible=1;marginBottom=0;swimlaneFillColor=#ffffff;rounded=0;shadow=0;comic=0;labelBackgroundColor=none;strokeWidth=1;fillColor=none;fontFamily=Verdana;fontSize=12" parent="1" vertex="1">
          <mxGeometry x="-1570" y="-350" width="190" height="90" as="geometry" />
        </mxCell>
        <mxCell id="CGtpagoQlfGa9cjguJkH-81" value="- user_id: int" style="text;html=1;strokeColor=none;fillColor=none;align=left;verticalAlign=top;spacingLeft=4;spacingRight=4;whiteSpace=wrap;overflow=hidden;rotatable=0;points=[[0,0.5],[1,0.5]];portConstraint=eastwest;" parent="CGtpagoQlfGa9cjguJkH-80" vertex="1">
          <mxGeometry y="26" width="190" height="26" as="geometry" />
        </mxCell>
        <mxCell id="CGtpagoQlfGa9cjguJkH-82" value="- user_name: String" style="text;html=1;strokeColor=none;fillColor=none;align=left;verticalAlign=top;spacingLeft=4;spacingRight=4;whiteSpace=wrap;overflow=hidden;rotatable=0;points=[[0,0.5],[1,0.5]];portConstraint=eastwest;" parent="CGtpagoQlfGa9cjguJkH-80" vertex="1">
          <mxGeometry y="52" width="190" height="26" as="geometry" />
        </mxCell>
        <mxCell id="CGtpagoQlfGa9cjguJkH-84" value="" style="line;html=1;strokeWidth=1;fillColor=none;align=left;verticalAlign=middle;spacingTop=-1;spacingLeft=3;spacingRight=3;rotatable=0;labelPosition=right;points=[];portConstraint=eastwest;" parent="CGtpagoQlfGa9cjguJkH-80" vertex="1">
          <mxGeometry y="78" width="190" height="8" as="geometry" />
        </mxCell>
        <mxCell id="CGtpagoQlfGa9cjguJkH-85" value="&lt;p style=&quot;margin:0px;margin-top:4px;text-align:center;&quot;&gt;&lt;i&gt;&amp;lt;&amp;lt;Interface&amp;gt;&amp;gt;&lt;/i&gt;&lt;br&gt;&lt;b&gt;ISellerRepository&lt;/b&gt;&lt;/p&gt;&lt;hr size=&quot;1&quot; style=&quot;border-style:solid;&quot;&gt;&lt;p style=&quot;margin:0px;margin-left:4px;&quot;&gt;+ save(Seller user): Seller&lt;br&gt;+ getById(Integer id): Seller&lt;/p&gt;&lt;p style=&quot;margin:0px;margin-left:4px;&quot;&gt;+ getAll(): List&amp;lt;Seller&amp;gt;&lt;/p&gt;&lt;p style=&quot;margin:0px;margin-left:4px;&quot;&gt;+ update(Seller seller): Seller&lt;/p&gt;&lt;p style=&quot;margin:0px;margin-left:4px;&quot;&gt;+ delete(int id): void&lt;/p&gt;" style="verticalAlign=top;align=left;overflow=fill;html=1;whiteSpace=wrap;" parent="1" vertex="1">
          <mxGeometry x="-80" y="98.5" width="220" height="120" as="geometry" />
        </mxCell>
        <mxCell id="CGtpagoQlfGa9cjguJkH-86" value="SellerRepositoryImp" style="swimlane;html=1;fontStyle=1;align=center;verticalAlign=top;childLayout=stackLayout;horizontal=1;startSize=26;horizontalStack=0;resizeParent=1;resizeLast=0;collapsible=1;marginBottom=0;swimlaneFillColor=#ffffff;rounded=0;shadow=0;comic=0;labelBackgroundColor=none;strokeWidth=1;fillColor=none;fontFamily=Verdana;fontSize=12" parent="1" vertex="1">
          <mxGeometry x="240" y="70" width="220" height="190" as="geometry" />
        </mxCell>
        <mxCell id="CGtpagoQlfGa9cjguJkH-87" value="- Sellers: List&amp;lt;Seller&amp;gt;" style="text;html=1;strokeColor=none;fillColor=none;align=left;verticalAlign=top;spacingLeft=4;spacingRight=4;whiteSpace=wrap;overflow=hidden;rotatable=0;points=[[0,0.5],[1,0.5]];portConstraint=eastwest;" parent="CGtpagoQlfGa9cjguJkH-86" vertex="1">
          <mxGeometry y="26" width="220" height="26" as="geometry" />
        </mxCell>
        <mxCell id="CGtpagoQlfGa9cjguJkH-88" value="" style="line;html=1;strokeWidth=1;fillColor=none;align=left;verticalAlign=middle;spacingTop=-1;spacingLeft=3;spacingRight=3;rotatable=0;labelPosition=right;points=[];portConstraint=eastwest;" parent="CGtpagoQlfGa9cjguJkH-86" vertex="1">
          <mxGeometry y="52" width="220" height="8" as="geometry" />
        </mxCell>
        <mxCell id="CGtpagoQlfGa9cjguJkH-89" value="+ save(Seller seller): Seller" style="text;html=1;strokeColor=none;fillColor=none;align=left;verticalAlign=top;spacingLeft=4;spacingRight=4;whiteSpace=wrap;overflow=hidden;rotatable=0;points=[[0,0.5],[1,0.5]];portConstraint=eastwest;" parent="CGtpagoQlfGa9cjguJkH-86" vertex="1">
          <mxGeometry y="60" width="220" height="26" as="geometry" />
        </mxCell>
        <mxCell id="CGtpagoQlfGa9cjguJkH-90" value="+ getById(Integer id): Seller" style="text;html=1;strokeColor=none;fillColor=none;align=left;verticalAlign=top;spacingLeft=4;spacingRight=4;whiteSpace=wrap;overflow=hidden;rotatable=0;points=[[0,0.5],[1,0.5]];portConstraint=eastwest;" parent="CGtpagoQlfGa9cjguJkH-86" vertex="1">
          <mxGeometry y="86" width="220" height="26" as="geometry" />
        </mxCell>
        <mxCell id="f18bukQDUnreSADYW3iN-112" value="+ getAll(): List&amp;lt;Seller&amp;gt;" style="text;html=1;strokeColor=none;fillColor=none;align=left;verticalAlign=top;spacingLeft=4;spacingRight=4;whiteSpace=wrap;overflow=hidden;rotatable=0;points=[[0,0.5],[1,0.5]];portConstraint=eastwest;" vertex="1" parent="CGtpagoQlfGa9cjguJkH-86">
          <mxGeometry y="112" width="220" height="26" as="geometry" />
        </mxCell>
        <mxCell id="CGtpagoQlfGa9cjguJkH-91" value="+ update(Seller: seller): Seller" style="text;html=1;strokeColor=none;fillColor=none;align=left;verticalAlign=top;spacingLeft=4;spacingRight=4;whiteSpace=wrap;overflow=hidden;rotatable=0;points=[[0,0.5],[1,0.5]];portConstraint=eastwest;" parent="CGtpagoQlfGa9cjguJkH-86" vertex="1">
          <mxGeometry y="138" width="220" height="26" as="geometry" />
        </mxCell>
        <mxCell id="CGtpagoQlfGa9cjguJkH-92" value="+ delete(int id): void" style="text;html=1;strokeColor=none;fillColor=none;align=left;verticalAlign=top;spacingLeft=4;spacingRight=4;whiteSpace=wrap;overflow=hidden;rotatable=0;points=[[0,0.5],[1,0.5]];portConstraint=eastwest;" parent="CGtpagoQlfGa9cjguJkH-86" vertex="1">
          <mxGeometry y="164" width="220" height="26" as="geometry" />
        </mxCell>
        <mxCell id="CGtpagoQlfGa9cjguJkH-94" value="&lt;p style=&quot;margin:0px;margin-top:4px;text-align:center;&quot;&gt;&lt;span style=&quot;background-color: rgb(255, 255, 255);&quot;&gt;&lt;i&gt;&amp;lt;&amp;lt;Interface&amp;gt;&amp;gt;&lt;/i&gt;&lt;br&gt;&lt;b&gt;ISellerService&lt;/b&gt;&lt;/span&gt;&lt;/p&gt;&lt;hr size=&quot;1&quot; style=&quot;border-style:solid;&quot;&gt;&lt;p style=&quot;margin: 0px 0px 0px 4px;&quot;&gt;&lt;span style=&quot;background-color: rgb(255, 255, 255);&quot;&gt;&lt;font face=&quot;Verdana&quot; style=&quot;font-size: 12px;&quot;&gt;+ getFollowersOfSeller(int seller_id, String order): FollowerSellerDto&lt;br&gt;&lt;font style=&quot;font-size: 12px;&quot;&gt;+ getCountOfSellerFollowers(Integer user_id):&amp;nbsp;SellersCountFollowersDto&lt;/font&gt;&lt;/font&gt;&lt;/span&gt;&lt;/p&gt;&lt;p style=&quot;margin: 0px 0px 0px 4px;&quot;&gt;&lt;br&gt;&lt;/p&gt;" style="verticalAlign=top;align=left;overflow=fill;html=1;whiteSpace=wrap;" parent="1" vertex="1">
          <mxGeometry x="-450" y="-130" width="480" height="110" as="geometry" />
        </mxCell>
        <mxCell id="CGtpagoQlfGa9cjguJkH-97" value="&lt;p style=&quot;margin:0px;margin-top:4px;text-align:center;&quot;&gt;&lt;i&gt;&amp;lt;&amp;lt;Interface&amp;gt;&amp;gt;&lt;/i&gt;&lt;br&gt;&lt;b&gt;IBuyerService&lt;/b&gt;&lt;/p&gt;&lt;hr size=&quot;1&quot; style=&quot;border-style:solid;&quot;&gt;&lt;p style=&quot;margin:0px;margin-left:4px;&quot;&gt;+ getAll() List&amp;lt;Buyer&amp;gt;&lt;br&gt;+ followUser(Integer user_id, Integer userIdToFollow): Buyer&lt;/p&gt;&lt;p style=&quot;margin:0px;margin-left:4px;&quot;&gt;+ getBuyerById(Integer id): Buyer&amp;nbsp;&lt;/p&gt;&lt;p style=&quot;margin:0px;margin-left:4px;&quot;&gt;+ getFollowedListByUser(Integer user_id, String order)&lt;/p&gt;&lt;p style=&quot;margin:0px;margin-left:4px;&quot;&gt;+ unfollowUser(Integer userToFollow, Integer userToUnfollow)&lt;/p&gt;" style="verticalAlign=top;align=left;overflow=fill;html=1;whiteSpace=wrap;" parent="1" vertex="1">
          <mxGeometry x="650" y="-140" width="390" height="170" as="geometry" />
        </mxCell>
        <mxCell id="CGtpagoQlfGa9cjguJkH-102" value="&lt;p style=&quot;margin:0px;margin-top:4px;text-align:center;&quot;&gt;&lt;i&gt;&amp;lt;&amp;lt;Interface&amp;gt;&amp;gt;&lt;/i&gt;&lt;br&gt;&lt;b&gt;IPostService&lt;/b&gt;&lt;/p&gt;&lt;hr size=&quot;1&quot; style=&quot;border-style:solid;&quot;&gt;&lt;p style=&quot;margin:0px;margin-left:4px;&quot;&gt;+ getPostsByFollowed(Integer user_id, String order): PostByFollowedDto&lt;br&gt;+ publishPost(PostDto postDto): PostDto&lt;/p&gt;&lt;p style=&quot;margin:0px;margin-left:4px;&quot;&gt;&lt;br&gt;&lt;/p&gt;" style="verticalAlign=top;align=left;overflow=fill;html=1;whiteSpace=wrap;" parent="1" vertex="1">
          <mxGeometry x="1610" y="-140" width="420" height="90" as="geometry" />
        </mxCell>
        <mxCell id="CGtpagoQlfGa9cjguJkH-103" style="edgeStyle=orthogonalEdgeStyle;rounded=0;orthogonalLoop=1;jettySize=auto;html=1;entryX=1;entryY=0.5;entryDx=0;entryDy=0;startArrow=diamondThin;startFill=1;endArrow=none;endFill=0;" parent="1" source="CGtpagoQlfGa9cjguJkH-25" target="CGtpagoQlfGa9cjguJkH-20" edge="1">
          <mxGeometry relative="1" as="geometry" />
        </mxCell>
        <mxCell id="CGtpagoQlfGa9cjguJkH-104" style="edgeStyle=orthogonalEdgeStyle;rounded=0;orthogonalLoop=1;jettySize=auto;html=1;exitX=1;exitY=0.5;exitDx=0;exitDy=0;entryX=0;entryY=0.5;entryDx=0;entryDy=0;endArrow=none;endFill=0;startArrow=diamondThin;startFill=1;" parent="1" source="CGtpagoQlfGa9cjguJkH-81" target="CGtpagoQlfGa9cjguJkH-23" edge="1">
          <mxGeometry relative="1" as="geometry" />
        </mxCell>
        <mxCell id="f18bukQDUnreSADYW3iN-93" style="edgeStyle=orthogonalEdgeStyle;rounded=0;orthogonalLoop=1;jettySize=auto;html=1;entryX=1;entryY=0.5;entryDx=0;entryDy=0;dashed=1;dashPattern=8 8;" edge="1" parent="1" source="CGtpagoQlfGa9cjguJkH-105" target="CGtpagoQlfGa9cjguJkH-94">
          <mxGeometry relative="1" as="geometry" />
        </mxCell>
        <mxCell id="f18bukQDUnreSADYW3iN-94" style="edgeStyle=orthogonalEdgeStyle;rounded=0;orthogonalLoop=1;jettySize=auto;html=1;entryX=1.005;entryY=0.071;entryDx=0;entryDy=0;exitX=1;exitY=0.25;exitDx=0;exitDy=0;dashed=1;dashPattern=8 8;entryPerimeter=0;" edge="1" parent="1" source="CGtpagoQlfGa9cjguJkH-105" target="CGtpagoQlfGa9cjguJkH-86">
          <mxGeometry relative="1" as="geometry">
            <Array as="points">
              <mxPoint x="560" y="-97" />
              <mxPoint x="590" y="-97" />
              <mxPoint x="590" y="80" />
              <mxPoint x="480" y="80" />
              <mxPoint x="480" y="90" />
              <mxPoint x="461" y="90" />
            </Array>
          </mxGeometry>
        </mxCell>
        <mxCell id="CGtpagoQlfGa9cjguJkH-105" value="&lt;p style=&quot;margin:0px;margin-top:4px;text-align:center;&quot;&gt;&lt;b&gt;SellerServiceImp&lt;/b&gt;&lt;/p&gt;&lt;hr size=&quot;1&quot; style=&quot;border-style:solid;&quot;&gt;&lt;p style=&quot;margin:0px;margin-left:4px;&quot;&gt;- ISellerRepository: sellerRepository&lt;/p&gt;&lt;p style=&quot;margin:0px;margin-left:4px;&quot;&gt;&lt;br&gt;&lt;/p&gt;&lt;p style=&quot;margin:0px;margin-left:4px;&quot;&gt;&lt;span style=&quot;font-family: Verdana; background-color: rgb(255, 255, 255);&quot;&gt;+ getFollowersOfSeller(int seller_id, String order): FollowerSellerDto&lt;/span&gt;&lt;br&gt;&lt;span style=&quot;font-family: Verdana; background-color: rgb(255, 255, 255);&quot;&gt;+ getCountOfSellerFollowers(Integer user_id):&amp;nbsp;SellersCountFollowersDto&lt;/span&gt;&lt;/p&gt;" style="verticalAlign=top;align=left;overflow=fill;html=1;whiteSpace=wrap;" parent="1" vertex="1">
          <mxGeometry x="70" y="-130" width="490" height="110" as="geometry" />
        </mxCell>
        <mxCell id="f18bukQDUnreSADYW3iN-97" style="edgeStyle=orthogonalEdgeStyle;rounded=0;orthogonalLoop=1;jettySize=auto;html=1;entryX=1;entryY=0.5;entryDx=0;entryDy=0;exitX=1;exitY=0.25;exitDx=0;exitDy=0;dashed=1;dashPattern=8 8;" edge="1" parent="1" source="CGtpagoQlfGa9cjguJkH-107" target="CGtpagoQlfGa9cjguJkH-47">
          <mxGeometry relative="1" as="geometry">
            <Array as="points">
              <mxPoint x="1480" y="-102" />
              <mxPoint x="1530" y="-102" />
              <mxPoint x="1530" y="150" />
              <mxPoint x="1480" y="150" />
            </Array>
          </mxGeometry>
        </mxCell>
        <mxCell id="CGtpagoQlfGa9cjguJkH-107" value="&lt;p style=&quot;margin:0px;margin-top:4px;text-align:center;&quot;&gt;&lt;b&gt;UserServiceImp&lt;/b&gt;&lt;/p&gt;&lt;hr size=&quot;1&quot; style=&quot;border-style:solid;&quot;&gt;&lt;p style=&quot;margin:0px;margin-left:4px;&quot;&gt;- IBuyerRepository: buyerRepository&lt;/p&gt;&lt;p style=&quot;margin:0px;margin-left:4px;&quot;&gt;&lt;br&gt;&lt;/p&gt;&lt;p style=&quot;margin: 0px 0px 0px 4px;&quot;&gt;+ getAll() List&amp;lt;Buyer&amp;gt;&lt;br&gt;+ followUser(Integer user_id, Integer userIdToFollow): Buyer&lt;/p&gt;&lt;p style=&quot;margin: 0px 0px 0px 4px;&quot;&gt;+ getBuyerById(Integer id): Buyer&amp;nbsp;&lt;/p&gt;&lt;p style=&quot;margin: 0px 0px 0px 4px;&quot;&gt;+ getFollowedListByUser(Integer user_id, String order)&lt;/p&gt;&lt;p style=&quot;margin: 0px 0px 0px 4px;&quot;&gt;+ unfollowUser(Integer userToFollow, Integer userToUnfollow)&lt;/p&gt;" style="verticalAlign=top;align=left;overflow=fill;html=1;whiteSpace=wrap;" parent="1" vertex="1">
          <mxGeometry x="1120" y="-140" width="360" height="180" as="geometry" />
        </mxCell>
        <mxCell id="f18bukQDUnreSADYW3iN-105" style="edgeStyle=orthogonalEdgeStyle;rounded=0;orthogonalLoop=1;jettySize=auto;html=1;entryX=1;entryY=0.5;entryDx=0;entryDy=0;exitX=1;exitY=0.25;exitDx=0;exitDy=0;dashed=1;dashPattern=8 8;" edge="1" parent="1" source="CGtpagoQlfGa9cjguJkH-111" target="CGtpagoQlfGa9cjguJkH-68">
          <mxGeometry relative="1" as="geometry" />
        </mxCell>
        <mxCell id="CGtpagoQlfGa9cjguJkH-111" value="&lt;p style=&quot;margin:0px;margin-top:4px;text-align:center;&quot;&gt;&lt;b&gt;PostServiceImp&lt;/b&gt;&lt;/p&gt;&lt;hr size=&quot;1&quot; style=&quot;border-style:solid;&quot;&gt;&lt;p style=&quot;margin:0px;margin-left:4px;&quot;&gt;- IPostRepository postRepository&lt;/p&gt;&lt;p style=&quot;margin:0px;margin-left:4px;&quot;&gt;&lt;br&gt;&lt;/p&gt;&lt;p style=&quot;margin:0px;margin-left:4px;&quot;&gt;+ getPostsByFollowed(Integer user_id, String order): PostByFollowedDto&lt;br&gt;+ publishPost(PostDto postDto): PostDto&lt;br&gt;&lt;/p&gt;" style="verticalAlign=top;align=left;overflow=fill;html=1;whiteSpace=wrap;" parent="1" vertex="1">
          <mxGeometry x="2090" y="-130" width="410" height="130" as="geometry" />
        </mxCell>
        <mxCell id="f18bukQDUnreSADYW3iN-85" style="edgeStyle=orthogonalEdgeStyle;rounded=0;orthogonalLoop=1;jettySize=auto;html=1;exitX=1;exitY=0.5;exitDx=0;exitDy=0;entryX=0.006;entryY=0.148;entryDx=0;entryDy=0;entryPerimeter=0;endArrow=diamondThin;endFill=0;" edge="1" parent="1" source="CGtpagoQlfGa9cjguJkH-2" target="CGtpagoQlfGa9cjguJkH-80">
          <mxGeometry relative="1" as="geometry" />
        </mxCell>
        <mxCell id="f18bukQDUnreSADYW3iN-92" style="edgeStyle=orthogonalEdgeStyle;rounded=0;orthogonalLoop=1;jettySize=auto;html=1;entryX=0.999;entryY=0.364;entryDx=0;entryDy=0;entryPerimeter=0;dashed=1;dashPattern=8 8;" edge="1" parent="1" source="CGtpagoQlfGa9cjguJkH-89" target="CGtpagoQlfGa9cjguJkH-85">
          <mxGeometry relative="1" as="geometry" />
        </mxCell>
        <mxCell id="f18bukQDUnreSADYW3iN-95" style="edgeStyle=orthogonalEdgeStyle;rounded=0;orthogonalLoop=1;jettySize=auto;html=1;exitX=0;exitY=0.5;exitDx=0;exitDy=0;entryX=1.005;entryY=0.593;entryDx=0;entryDy=0;entryPerimeter=0;dashed=1;dashPattern=8 8;" edge="1" parent="1" source="CGtpagoQlfGa9cjguJkH-107" target="CGtpagoQlfGa9cjguJkH-97">
          <mxGeometry relative="1" as="geometry" />
        </mxCell>
        <mxCell id="f18bukQDUnreSADYW3iN-96" style="edgeStyle=orthogonalEdgeStyle;rounded=0;orthogonalLoop=1;jettySize=auto;html=1;entryX=1;entryY=0.5;entryDx=0;entryDy=0;dashed=1;dashPattern=8 8;" edge="1" parent="1" source="CGtpagoQlfGa9cjguJkH-54" target="CGtpagoQlfGa9cjguJkH-42">
          <mxGeometry relative="1" as="geometry" />
        </mxCell>
        <mxCell id="f18bukQDUnreSADYW3iN-101" value="Seller" style="text;html=1;align=center;verticalAlign=middle;resizable=0;points=[];autosize=1;strokeColor=none;fillColor=none;fontSize=80;" vertex="1" parent="1">
          <mxGeometry x="50" y="250" width="230" height="110" as="geometry" />
        </mxCell>
        <mxCell id="f18bukQDUnreSADYW3iN-102" value="Buyer" style="text;html=1;align=center;verticalAlign=middle;resizable=0;points=[];autosize=1;strokeColor=none;fillColor=none;fontSize=80;" vertex="1" parent="1">
          <mxGeometry x="740" y="260" width="230" height="110" as="geometry" />
        </mxCell>
        <mxCell id="f18bukQDUnreSADYW3iN-104" style="edgeStyle=orthogonalEdgeStyle;rounded=0;orthogonalLoop=1;jettySize=auto;html=1;entryX=1;entryY=0.208;entryDx=0;entryDy=0;entryPerimeter=0;dashed=1;dashPattern=8 8;" edge="1" parent="1" source="CGtpagoQlfGa9cjguJkH-111" target="CGtpagoQlfGa9cjguJkH-102">
          <mxGeometry relative="1" as="geometry" />
        </mxCell>
        <mxCell id="f18bukQDUnreSADYW3iN-106" value="Service" style="text;html=1;align=center;verticalAlign=middle;resizable=0;points=[];autosize=1;strokeColor=none;fillColor=none;fontSize=80;" vertex="1" parent="1">
          <mxGeometry x="1700" y="280" width="290" height="110" as="geometry" />
        </mxCell>
        <mxCell id="f18bukQDUnreSADYW3iN-107" value="Entities" style="text;html=1;align=center;verticalAlign=middle;resizable=0;points=[];autosize=1;strokeColor=none;fillColor=none;fontSize=80;" vertex="1" parent="1">
          <mxGeometry x="-1590" y="-178" width="290" height="110" as="geometry" />
        </mxCell>
        <mxCell id="f18bukQDUnreSADYW3iN-108" value="&lt;p style=&quot;margin:0px;margin-top:4px;text-align:center;&quot;&gt;&lt;/p&gt;&lt;pre style=&quot;text-align: center;&quot;&gt;&lt;i&gt;&amp;lt;&amp;lt;Controller&amp;gt;&amp;gt;&lt;/i&gt;&lt;/pre&gt;&lt;b&gt;&lt;div style=&quot;text-align: center;&quot;&gt;&lt;b style=&quot;background-color: initial;&quot;&gt;Social Meli Controller&lt;/b&gt;&lt;/div&gt;&lt;/b&gt;&lt;p&gt;&lt;/p&gt;&lt;hr size=&quot;1&quot; style=&quot;border-style:solid;&quot;&gt;&lt;p style=&quot;margin:0px;margin-left:4px;&quot;&gt;&lt;font face=&quot;Verdana&quot;&gt;- IBuyerService: buyerService&lt;/font&gt;&lt;/p&gt;&lt;p style=&quot;margin:0px;margin-left:4px;&quot;&gt;&lt;font face=&quot;Verdana&quot;&gt;- ISellerService: sellerService&lt;/font&gt;&lt;/p&gt;&lt;p style=&quot;margin:0px;margin-left:4px;&quot;&gt;&lt;font face=&quot;Verdana&quot;&gt;- IPostService: postService&lt;/font&gt;&lt;/p&gt;&lt;p style=&quot;margin:0px;margin-left:4px;&quot;&gt;&lt;font face=&quot;Verdana&quot;&gt;&lt;br&gt;&lt;/font&gt;&lt;/p&gt;&lt;p style=&quot;margin:0px;margin-left:4px;&quot;&gt;&lt;font face=&quot;Verdana&quot;&gt;+ getAll()&lt;/font&gt;&lt;/p&gt;&lt;p style=&quot;margin:0px;margin-left:4px;&quot;&gt;&lt;font face=&quot;Verdana&quot;&gt;&lt;span style=&quot;background-color: rgb(251, 251, 251);&quot;&gt;+&amp;nbsp;&lt;/span&gt;&lt;span style=&quot;background-color: rgb(255, 255, 255);&quot;&gt;followUser(@PathVariable Integer userId, @PathVariable Integer userIdToFollow)&lt;/span&gt;&lt;/font&gt;&lt;/p&gt;&lt;p style=&quot;margin:0px;margin-left:4px;&quot;&gt;&lt;font face=&quot;Verdana&quot;&gt;&lt;span style=&quot;background-color: rgb(255, 255, 255);&quot;&gt;+&amp;nbsp;&lt;/span&gt;&lt;span style=&quot;background-color: rgb(255, 255, 255);&quot;&gt;getCountOfSellerFollowers(@PathVariable Integer userId)&lt;/span&gt;&lt;/font&gt;&lt;/p&gt;&lt;p style=&quot;margin:0px;margin-left:4px;&quot;&gt;&lt;font face=&quot;Verdana&quot;&gt;&lt;span style=&quot;background-color: rgb(255, 255, 255);&quot;&gt;+ getFollowersOfSeller(&amp;nbsp;&lt;/span&gt;&lt;span style=&quot;background-color: rgb(255, 255, 255);&quot;&gt;@PathVariable(&quot;userId&quot;) int userId,&amp;nbsp;&lt;/span&gt;&lt;span style=&quot;background-color: rgb(255, 255, 255);&quot;&gt;@RequestParam(name = &quot;order&quot;, defaultValue = &quot;&quot;, required = false) String order)&lt;/span&gt;&lt;/font&gt;&lt;/p&gt;&lt;p style=&quot;margin:0px;margin-left:4px;&quot;&gt;&lt;span style=&quot;background-color: rgb(255, 255, 255); font-family: Verdana;&quot;&gt;+ getPostsByFollowed&lt;/span&gt;&lt;span style=&quot;background-color: rgb(255, 255, 255); font-family: Verdana;&quot;&gt;(&lt;/span&gt;&lt;span style=&quot;background-color: rgb(255, 255, 255); font-family: Verdana;&quot;&gt;@PathVariable &lt;/span&gt;&lt;span style=&quot;background-color: rgb(255, 255, 255); font-family: Verdana;&quot;&gt;Integer userId&lt;/span&gt;&lt;span style=&quot;background-color: rgb(255, 255, 255); font-family: Verdana;&quot;&gt;, &lt;/span&gt;&lt;span style=&quot;background-color: rgb(255, 255, 255); font-family: Verdana;&quot;&gt;@RequestParam&lt;/span&gt;&lt;span style=&quot;background-color: rgb(255, 255, 255); font-family: Verdana;&quot;&gt;(required = &lt;/span&gt;&lt;span style=&quot;background-color: rgb(255, 255, 255); font-family: Verdana;&quot;&gt;false&lt;/span&gt;&lt;span style=&quot;background-color: rgb(255, 255, 255); font-family: Verdana;&quot;&gt;) String order)&lt;/span&gt;&lt;/p&gt;&lt;p style=&quot;margin:0px;margin-left:4px;&quot;&gt;&lt;span style=&quot;background-color: rgb(255, 255, 255); font-family: Verdana;&quot;&gt;+ getFollowedListById&lt;/span&gt;&lt;span style=&quot;background-color: rgb(255, 255, 255); font-family: Verdana;&quot;&gt;(&lt;/span&gt;&lt;span style=&quot;background-color: rgb(255, 255, 255); font-family: Verdana;&quot;&gt;@PathVariable &lt;/span&gt;&lt;span style=&quot;background-color: rgb(255, 255, 255); font-family: Verdana;&quot;&gt;Integer userId&lt;/span&gt;&lt;span style=&quot;background-color: rgb(255, 255, 255); font-family: Verdana;&quot;&gt;,&lt;/span&gt;&lt;span style=&quot;background-color: rgb(255, 255, 255); font-family: Verdana;&quot;&gt;@RequestParam&lt;/span&gt;&lt;span style=&quot;background-color: rgb(255, 255, 255); font-family: Verdana;&quot;&gt;(required = &lt;/span&gt;&lt;span style=&quot;background-color: rgb(255, 255, 255); font-family: Verdana;&quot;&gt;false&lt;/span&gt;&lt;span style=&quot;background-color: rgb(255, 255, 255); font-family: Verdana;&quot;&gt;) String order)&lt;/span&gt;&lt;/p&gt;&lt;p style=&quot;margin:0px;margin-left:4px;&quot;&gt;&lt;span style=&quot;font-family: Verdana; background-color: rgb(255, 255, 255);&quot;&gt;+ unfollowUser&lt;/span&gt;&lt;span style=&quot;font-family: Verdana; background-color: rgb(255, 255, 255);&quot;&gt;(&lt;/span&gt;&lt;span style=&quot;font-family: Verdana; background-color: rgb(255, 255, 255);&quot;&gt;@PathVariable &lt;/span&gt;&lt;span style=&quot;font-family: Verdana; background-color: rgb(255, 255, 255);&quot;&gt;Integer userId&lt;/span&gt;&lt;span style=&quot;font-family: Verdana; background-color: rgb(255, 255, 255);&quot;&gt;,&lt;/span&gt;&lt;span style=&quot;font-family: Verdana; background-color: rgb(255, 255, 255);&quot;&gt;@PathVariable &lt;/span&gt;&lt;span style=&quot;font-family: Verdana; background-color: rgb(255, 255, 255);&quot;&gt;Integer userIdToUnfollow)&lt;/span&gt;&lt;/p&gt;" style="verticalAlign=top;align=left;overflow=fill;html=1;whiteSpace=wrap;" vertex="1" parent="1">
          <mxGeometry x="730" y="-500" width="910" height="240" as="geometry" />
        </mxCell>
        <mxCell id="f18bukQDUnreSADYW3iN-109" value="Service" style="text;html=1;align=center;verticalAlign=middle;resizable=0;points=[];autosize=1;strokeColor=none;fillColor=none;fontSize=80;" vertex="1" parent="1">
          <mxGeometry x="-840" y="-115" width="290" height="110" as="geometry" />
        </mxCell>
        <mxCell id="f18bukQDUnreSADYW3iN-110" value="Repository" style="text;html=1;align=center;verticalAlign=middle;resizable=0;points=[];autosize=1;strokeColor=none;fillColor=none;fontSize=80;" vertex="1" parent="1">
          <mxGeometry x="-850" y="90" width="410" height="110" as="geometry" />
        </mxCell>
        <mxCell id="f18bukQDUnreSADYW3iN-111" value="" style="endArrow=none;dashed=1;html=1;rounded=0;" edge="1" parent="1">
          <mxGeometry width="50" height="50" relative="1" as="geometry">
            <mxPoint x="-520" y="50" as="sourcePoint" />
            <mxPoint x="2690" y="50" as="targetPoint" />
          </mxGeometry>
        </mxCell>
        <mxCell id="CGtpagoQlfGa9cjguJkH-74" style="edgeStyle=orthogonalEdgeStyle;rounded=0;orthogonalLoop=1;jettySize=auto;html=1;exitX=0.005;exitY=0.075;exitDx=0;exitDy=0;dashed=1;dashPattern=8 8;exitPerimeter=0;entryX=1.015;entryY=0.186;entryDx=0;entryDy=0;entryPerimeter=0;" parent="1" source="CGtpagoQlfGa9cjguJkH-67" edge="1" target="CGtpagoQlfGa9cjguJkH-44">
          <mxGeometry relative="1" as="geometry">
            <mxPoint x="1830" y="159.18181818181802" as="targetPoint" />
          </mxGeometry>
        </mxCell>
      </root>
    </mxGraphModel>
  </diagram>
</mxfile>
